<svg xmlns="http://www.w3.org/2000/svg" width="347" height="132" viewBox="0 0 347 132"><defs><clipPath id="91fra"><path fill="#fff" d="M66 40h215c14.36 0 26 11.64 26 26s-11.64 26-26 26H66c-14.36 0-26-11.64-26-26s11.64-26 26-26z"/></clipPath></defs><g><g><path fill="#f1cdb3" d="M66 40h215c14.36 0 26 11.64 26 26s-11.64 26-26 26H66c-14.36 0-26-11.64-26-26s11.64-26 26-26z"/><path fill="none" stroke="#f1cdb3" stroke-miterlimit="20" stroke-width="4" d="M66 40h215c14.36 0 26 11.64 26 26s-11.64 26-26 26H66c-14.36 0-26-11.64-26-26s11.64-26 26-26z" clip-path="url(&quot;#91fra&quot;)"/></g></g></svg>